<svg width="42" height="31" viewBox="0 0 42 31" fill="none" xmlns="http://www.w3.org/2000/svg">
<path d="M41.4783 8.32717V28.6087C41.4783 29.7326 40.4413 30.6522 39.1739 30.6522H5.24239C3.975 30.6522 2.93804 29.7326 2.93804 28.6087C2.93804 27.4848 3.975 26.5652 5.24239 26.5652H36.8696V10.2174H7.89239L11.0609 13.0783C11.9826 13.8957 11.9826 15.2239 11.0609 16.0413C10.6 16.45 10.0239 16.6543 9.44783 16.6543C8.87174 16.6543 8.29565 16.45 7.83478 16.0413L0.691304 9.75761C0.230435 9.34891 0 8.83804 0 8.32717C0 7.76522 0.230435 7.25435 0.691304 6.89674L7.83478 0.613044C8.75652 -0.204348 10.1967 -0.204348 11.1185 0.613044C12.0402 1.43043 11.9826 2.65652 11.1185 3.47391L7.89239 6.13043H39.1739C40.4413 6.13043 41.4783 7.20326 41.4783 8.32717Z" fill="black"/>
</svg>
